<?xml version="1.0" encoding="utf-8"?>
<!-- Generator: Adobe Illustrator 25.4.1, SVG Export Plug-In . SVG Version: 6.00 Build 0)  -->
<svg version="1.1" id="Calque_1" xmlns="http://www.w3.org/2000/svg" xmlns:xlink="http://www.w3.org/1999/xlink" x="0px" y="0px"
	 viewBox="0 0 32 32" style="enable-background:new 0 0 32 32;" xml:space="preserve">
<style type="text/css">
	.st0{fill:#DC9304;}
	.st1{fill:#0D2120;}
</style>
<g>
	<g>
		<g>
			<path class="st0" d="M21.95,8.65c0.6-1.29,1.34-2.52,1.75-3.89c0.16-0.53,0.26-1.1,0.27-1.65c0-0.5-0.07-1.06-0.44-1.42
				c-0.46-0.44-1.16-0.32-1.64,0.02c-0.52,0.37-0.81,0.99-0.98,1.58c-0.3,1.02-0.27,2.02-0.2,3.06c0.05,0.75,0.12,1.5,0.21,2.24
				c0.03,0.29,0.37,0.47,0.64,0.42c0.3-0.06,0.46-0.35,0.42-0.64c-0.06-0.51-0.11-1.01-0.16-1.52c-0.06-0.72-0.15-1.45-0.08-2.2
				c0.05-0.54,0.15-1.12,0.4-1.61c0.1-0.19,0.23-0.39,0.41-0.5c0,0,0.11-0.05,0.13-0.05c0.02-0.01,0.16-0.03,0.07-0.02
				c0.06,0.01,0.07,0,0.03,0c-0.04-0.01-0.03-0.01,0.02,0.01c-0.01-0.01-0.03-0.02-0.04-0.02c0.04,0.03,0.05,0.03,0.02,0.01
				c-0.03-0.07,0.03,0.04,0.04,0.05c-0.06-0.1-0.02-0.02-0.01,0c0.07,0.14-0.02-0.1,0.03,0.06c0.05,0.2,0.06,0.36,0.06,0.54
				C22.88,3.56,22.8,4,22.67,4.43c-0.41,1.36-1.15,2.6-1.75,3.89c-0.12,0.26,0.09,0.6,0.34,0.68C21.57,9.09,21.83,8.91,21.95,8.65z"
				/>
		</g>
		<g>
			<path class="st0" d="M24.39,10.78c1.26-0.64,2.61-1.16,3.77-1.99c0.45-0.32,0.88-0.7,1.23-1.14c0.31-0.39,0.6-0.88,0.52-1.39
				c-0.1-0.63-0.72-0.96-1.31-0.99c-0.63-0.03-1.24,0.28-1.74,0.64c-0.86,0.62-1.46,1.42-2.04,2.29c-0.42,0.62-0.82,1.26-1.21,1.9
				c-0.15,0.25,0,0.6,0.24,0.72c0.28,0.14,0.57,0.01,0.72-0.24c0.26-0.44,0.53-0.87,0.81-1.29c0.4-0.61,0.78-1.23,1.29-1.78
				c0.37-0.4,0.81-0.79,1.31-1.02c0.19-0.09,0.42-0.17,0.63-0.14c0,0,0.12,0.03,0.14,0.04c0.02,0.01,0.15,0.07,0.07,0.03
				c0.04,0.04,0.05,0.04,0.03,0.02c-0.02-0.03-0.02-0.02,0.01,0.02c-0.01-0.02-0.01-0.03-0.02-0.05c0.02,0.05,0.02,0.05,0.01,0.02
				c0.02-0.07,0,0.05,0,0.06c0.02-0.11,0-0.02-0.01,0c-0.04,0.15,0.05-0.09-0.02,0.06C28.74,6.72,28.64,6.85,28.53,7
				c-0.28,0.35-0.61,0.65-0.98,0.91c-1.16,0.83-2.5,1.34-3.77,1.99c-0.26,0.13-0.3,0.52-0.15,0.74
				C23.81,10.9,24.13,10.92,24.39,10.78z"/>
		</g>
		<g>
			<path class="st0" d="M24.7,13.72c1.36,0.4,2.69,0.95,4.1,1.14c0.55,0.08,1.13,0.1,1.67,0.02c0.49-0.07,1.04-0.22,1.34-0.65
				c0.36-0.52,0.14-1.19-0.27-1.62c-0.44-0.46-1.1-0.65-1.71-0.73c-1.05-0.14-2.04,0.03-3.06,0.26c-0.73,0.16-1.46,0.35-2.18,0.55
				c-0.28,0.08-0.41,0.43-0.32,0.69c0.11,0.29,0.41,0.4,0.69,0.32c0.49-0.14,0.98-0.26,1.48-0.38c0.71-0.17,1.41-0.36,2.16-0.41
				c0.54-0.03,1.13-0.02,1.65,0.16c0.2,0.07,0.42,0.17,0.56,0.33c0,0,0.06,0.1,0.07,0.12c0.01,0.02,0.05,0.15,0.03,0.06
				c0,0.06,0.01,0.07,0.01,0.03c0-0.04,0-0.03,0,0.02c0.01-0.02,0.01-0.03,0.02-0.05c-0.02,0.05-0.02,0.05,0,0.02
				c0.06-0.04-0.04,0.04-0.04,0.05c0.09-0.07,0.01-0.02,0-0.01c-0.13,0.09,0.1-0.04-0.06,0.03c-0.19,0.08-0.34,0.11-0.53,0.14
				c-0.44,0.06-0.89,0.05-1.33-0.01c-1.41-0.2-2.74-0.74-4.1-1.14c-0.28-0.08-0.57,0.18-0.62,0.44
				C24.21,13.41,24.42,13.64,24.7,13.72z"/>
		</g>
	</g>
	<g>
		<path class="st1" d="M23.46,20.97c0,3.82-1.65,7.25-4.26,9.62h-0.47c0.27-0.14,0.19-0.59-0.02-0.93
			c-0.21-0.38,0.16-0.48,0.82-0.69c0.66-0.22,0.85-0.53,0.74-1.51c-0.11-0.99-0.38-1.99,0.1-2.29c0.48-0.29,1.65-1.48,2.01-2.47
			c0.38-0.98,0.22-1.32-0.02-1.21c-0.24,0.1-0.88,0.48-1.14,0.34c-0.26-0.13-0.42-0.91-1-1.3c-0.59-0.4-0.72-0.72-0.93-1.33
			c-0.21-0.61-0.5-0.69-0.79-1.19c-0.3-0.5-0.51-1.41-0.99-1.17c-0.77,0.38-1.03,0-1.75-0.29c-0.72-0.3-0.27,0.69-0.96,0.42
			c-0.69-0.27-0.8-0.45-1.41-0.56c-0.6-0.11,0.19-0.69-0.24-0.93c-0.42-0.24-1.91,0.4-2.39,0.51c-0.48,0.1-0.61-0.45-0.88-0.19
			c-0.26,0.27-1,0.69-1,1.17c0,0.48-0.32,0.34-1.14,0.85c-0.82,0.51-0.88,1.51-0.88,1.86c0,0.34-0.45,1.01-0.56,1.17
			c-0.1,0.16,0.05,0.51,0.45,0.82c0.4,0.32,0.27,0.85,0.77,1.2c0.5,0.34,0.61,0.66,0.85,0.56c0.24-0.11,0.82-0.32,1.17-0.11
			c0.34,0.21,1.25-0.66,1.65-0.48c0.4,0.19,0.53,0.61,1.03,0.61c0.51,0,0.53,0.48,0.35,0.85c-0.19,0.37-0.16,0.63,0.18,0.92
			c0.34,0.29,0.38,0.42,0.59,0.9c0.21,0.48,0.1,0.88,0.24,1.11c0.13,0.24,0.05,0.48-0.21,0.78c-0.27,0.29-0.24,0.69,0.02,1.19
			c0.27,0.5,0.51,0.77,0.51,1.22c0,0.05,0,0.11,0.02,0.16H0c0.24-0.36,0.47-0.73,0.68-1.1c1.43-2.52,2.25-5.41,2.25-8.52
			c0-3.1-0.81-6-2.25-8.52c-0.21-0.38-0.44-0.74-0.68-1.1h19.19C21.81,13.72,23.46,17.16,23.46,20.97z"/>
		<path class="st1" d="M15.55,10.27L15.55,10.27c-0.21,0-0.42-0.1-0.55-0.27c-1.12-1.55-2.95-2.56-5.02-2.56
			c-2.06,0-3.89,1.01-5.02,2.56c-0.13,0.17-0.33,0.27-0.55,0.27h0c-0.56,0-0.88-0.63-0.56-1.08c1.37-1.89,3.6-3.12,6.12-3.12
			c2.52,0,4.75,1.23,6.12,3.12C16.43,9.64,16.1,10.27,15.55,10.27z"/>
	</g>
</g>
</svg>
